<svg height="464pt" viewBox="0 -16 464 464" width="464pt" xmlns="http://www.w3.org/2000/svg"><path d="M456 368l-72 16-56-320 72-16zm0 0" fill="#fdbd40"/><path d="M160 0h96v384h-96zM0 112h80v272H0zm0 0" fill="#238892"/><path d="M0 384h464v48H0zm0 0" fill="#d3843d"/><path d="M256 112h80v272h-80zm0 0" fill="#e9686a"/><path d="M80 56h80v328H80zm0 0" fill="#fdbd40"/><path d="M160 64h96v256h-96zm0 0" fill="#cfdfe8"/><path d="M80 320h80v32H80zm0 0" fill="#e9686a"/><path d="M40 280a8 8 0 0 1-8-8V152a8 8 0 0 1 16 0v120a8 8 0 0 1-8 8zm0 48a8 8 0 0 1-8-8v-16a8 8 0 0 1 16 0v16a8 8 0 0 1-8 8zm216-160h80v72h-80zm0 0" fill="#fdbd40"/><path d="M224 104h-32a8 8 0 0 1 0-16h32a8 8 0 0 1 0 16zm0 192h-32a8 8 0 0 1 0-16h32a8 8 0 0 1 0 16zm0 0" fill="#238892"/></svg>