<svg height="464pt" viewBox="0 0 464 464" width="464pt" xmlns="http://www.w3.org/2000/svg"><path d="M32 0h400c17.672 0 32 14.328 32 32v272H0V32C0 14.328 14.328 0 32 0zm0 0" fill="#cfdfe8"/><path d="M0 240h464v64H0zm0 0" fill="#7d8d9c"/><path d="M288 416H176l16-112h80zm0 0" fill="#394d5c"/><path d="M144 416h176c17.672 0 32 14.328 32 32v16H112v-16c0-17.672 14.328-32 32-32zm0 0" fill="#7d8d9c"/><path d="M248 280h-32a8 8 0 0 1 0-16h32a8 8 0 0 1 0 16zm0 0" fill="#cfdfe8"/><path d="M432 416c17.672 0 32 14.328 32 32v16h-64v-16c0-17.672 14.328-32 32-32zm0 0" fill="#7d8d9c"/><path d="M432 440a8 8 0 0 1-8-8v-16a8 8 0 0 1 16 0v16a8 8 0 0 1-8 8zm0 0" fill="#394d5c"/><path d="M136 48h48v48h-48zm-8 88h56v48h-56zm88-88h128v64H216zm0 96h48v48h-48zm80 0h32v32h-32zm0 0" fill="#238892"/><path d="M40 64H24V24h40v16H40zM24 96h16v32H24zm416 120h-40v-16h24v-24h16zm-16-88h16v32h-16zm0 0" fill="#7d8d9c"/></svg>