<svg xmlns="http://www.w3.org/2000/svg" viewBox="0 0 472 472"><path d="M468 224v192h-33.232L468 464l-99.696-48H204c-24.472 0-40-21.488-40-48V224c0-26.512 15.528-48 40-48h219.696c25.47 1.061 45.283 22.526 44.304 48z" fill="#fdbd40"/><path d="M172 448c-22.08-.026-39.974-17.92-40-40h16c0 13.255 10.745 24 24 24v16zm-32 24c-22.08-.026-39.974-17.92-40-40h16c0 13.255 10.745 24 24 24v16z" fill="#fcf05a"/><path d="M387.464 381.112L365.6 324.904l-34.136-87.792a8 8 0 0 0-14.92 0l-56 144a8.003 8.003 0 0 0 14.92 5.792L295.256 336h57.496l19.792 50.896a8.003 8.003 0 0 0 14.92-5.792v.008zM301.48 320L324 262.08 346.528 320H301.48zM4 48v192h33.232L4 288l99.696-48H268c24.472 0 40-21.488 40-48V48c0-26.512-15.528-48-40-48H48.304C22.834 1.061 3.021 22.526 4 48z" fill="#5f79ba"/><path d="M156 152a8 8 0 0 1-8-8v-32a8 8 0 0 1 8-8c17.673 0 32-14.327 32-32s-14.327-32-32-32-32 14.327-32 32a8 8 0 0 1-16 0c.004-26.51 21.498-47.997 48.007-47.993 26.51.004 47.997 21.498 47.993 48.007-.004 23.42-16.908 43.418-40 47.321V144a8 8 0 0 1-8 8zm6.856 35.88A7.771 7.771 0 0 0 164 184v-8a8 8 0 0 0-16 0v8a7.782 7.782 0 0 0 1.28 4.08 7.834 7.834 0 0 0-1.16 3.92 8 8 0 0 0 16 0 7.797 7.797 0 0 0-1.264-4.12z" fill="#fcf05a"/></svg>