<svg viewBox="0 0 1088 297" xmlns="http://www.w3.org/2000/svg"><defs><linearGradient x1="-123.254%" y1="41.846%" x2="2380.102%" y2="159.148%" id="a"><stop stop-color="#00DCB3" offset="0%"/><stop stop-color="#00D3DC" offset="100%"/></linearGradient><linearGradient x1="-59.726%" y1="17.56%" x2="445.352%" y2="167.372%" id="b"><stop stop-color="#00DCB3" offset="0%"/><stop stop-color="#00D3DC" offset="100%"/></linearGradient><linearGradient x1="-148.38%" y1="-5.392%" x2="314.4%" y2="111.825%" id="c"><stop stop-color="#00DCB3" offset="0%"/><stop stop-color="#00D3DC" offset="100%"/></linearGradient><linearGradient x1="-296.14%" y1="-46.183%" x2="247.591%" y2="103.489%" id="d"><stop stop-color="#00DCB3" offset="0%"/><stop stop-color="#00D3DC" offset="100%"/></linearGradient><linearGradient x1="-326.776%" y1="-48.69%" x2="120.195%" y2="68.612%" id="e"><stop stop-color="#00DCB3" offset="0%"/><stop stop-color="#00D3DC" offset="100%"/></linearGradient><linearGradient x1="-263.485%" y1="-82.1%" x2="311.592%" y2="206.148%" id="f"><stop stop-color="#00DC9C" offset="0%"/><stop stop-color="#00D3DC" offset="100%"/></linearGradient><linearGradient x1="-363.425%" y1="-132.259%" x2="211.652%" y2="155.989%" id="g"><stop stop-color="#00DC9C" offset="0%"/><stop stop-color="#00D3DC" offset="100%"/></linearGradient><linearGradient x1="-316.359%" y1="-108.631%" x2="258.718%" y2="179.617%" id="h"><stop stop-color="#00DC9C" offset="0%"/><stop stop-color="#00D3DC" offset="100%"/></linearGradient><linearGradient x1="-416.348%" y1="-158.791%" x2="158.728%" y2="129.457%" id="i"><stop stop-color="#00DC9C" offset="0%"/><stop stop-color="#00D3DC" offset="100%"/></linearGradient><linearGradient x1="-369.693%" y1="-135.367%" x2="205.384%" y2="152.881%" id="j"><stop stop-color="#00DC9C" offset="0%"/><stop stop-color="#00D3DC" offset="100%"/></linearGradient><linearGradient x1="-469.677%" y1="-185.527%" x2="105.4%" y2="102.721%" id="k"><stop stop-color="#00DC9C" offset="0%"/><stop stop-color="#00D3DC" offset="100%"/></linearGradient><linearGradient x1="-107.054%" y1="-3.741%" x2="468.023%" y2="284.507%" id="l"><stop stop-color="#00DC9C" offset="0%"/><stop stop-color="#00D3DC" offset="100%"/></linearGradient><linearGradient x1="-203.696%" y1="-51.942%" x2="372.311%" y2="236.307%" id="m"><stop stop-color="#00DC9C" offset="0%"/><stop stop-color="#00D3DC" offset="100%"/></linearGradient><linearGradient x1="-223.283%" y1="-62.027%" x2="351.794%" y2="226.221%" id="n"><stop stop-color="#00DC9C" offset="0%"/><stop stop-color="#00D3DC" offset="100%"/></linearGradient><linearGradient x1="-297.727%" y1="-99.018%" x2="278.28%" y2="189.23%" id="o"><stop stop-color="#00DC9C" offset="0%"/><stop stop-color="#00D3DC" offset="100%"/></linearGradient><linearGradient x1="-434.374%" y1="-167.41%" x2="141.633%" y2="120.838%" id="p"><stop stop-color="#00DC9C" offset="0%"/><stop stop-color="#00D3DC" offset="100%"/></linearGradient><linearGradient x1="-224.612%" y1="-62.385%" x2="351.395%" y2="225.863%" id="q"><stop stop-color="#00DC9C" offset="0%"/><stop stop-color="#00D3DC" offset="100%"/></linearGradient><linearGradient x1="-166.786%" y1="-83.657%" x2="408.291%" y2="204.591%" id="r"><stop stop-color="#00DC9C" offset="0%"/><stop stop-color="#00D3DC" offset="100%"/></linearGradient><linearGradient x1="-99.073%" y1="-49.754%" x2="476.004%" y2="238.494%" id="s"><stop stop-color="#00DC9C" offset="0%"/><stop stop-color="#00D3DC" offset="100%"/></linearGradient><linearGradient x1="-205.277%" y1="-102.948%" x2="369.8%" y2="185.3%" id="t"><stop stop-color="#00DC9C" offset="0%"/><stop stop-color="#00D3DC" offset="100%"/></linearGradient><linearGradient x1="-124.231%" y1="-62.351%" x2="450.846%" y2="225.897%" id="u"><stop stop-color="#00DC9C" offset="0%"/><stop stop-color="#00D3DC" offset="100%"/></linearGradient><linearGradient x1="-273.392%" y1="-136.824%" x2="302.615%" y2="151.424%" id="v"><stop stop-color="#00DC9C" offset="0%"/><stop stop-color="#00D3DC" offset="100%"/></linearGradient><linearGradient x1="-102.245%" y1="-51.372%" x2="472.832%" y2="236.876%" id="w"><stop stop-color="#00DC9C" offset="0%"/><stop stop-color="#00D3DC" offset="100%"/></linearGradient><linearGradient x1="-366.677%" y1="-183.819%" x2="208.4%" y2="104.429%" id="x"><stop stop-color="#00DC9C" offset="0%"/><stop stop-color="#00D3DC" offset="100%"/></linearGradient><linearGradient x1="-319.813%" y1="-160.434%" x2="255.263%" y2="127.815%" id="y"><stop stop-color="#00DC9C" offset="0%"/><stop stop-color="#00D3DC" offset="100%"/></linearGradient><linearGradient x1="-419.538%" y1="-210.35%" x2="155.539%" y2="77.897%" id="z"><stop stop-color="#00DC9C" offset="0%"/><stop stop-color="#00D3DC" offset="100%"/></linearGradient><linearGradient x1="-372.756%" y1="-186.965%" x2="202.321%" y2="101.283%" id="A"><stop stop-color="#00DC9C" offset="0%"/><stop stop-color="#00D3DC" offset="100%"/></linearGradient><linearGradient x1="-298.589%" y1="-149.689%" x2="276.488%" y2="138.559%" id="B"><stop stop-color="#00DC9C" offset="0%"/><stop stop-color="#00D3DC" offset="100%"/></linearGradient><linearGradient x1="-266.475%" y1="-133.697%" x2="308.602%" y2="154.551%" id="C"><stop stop-color="#00DC9C" offset="0%"/><stop stop-color="#00D3DC" offset="100%"/></linearGradient></defs><g fill="none"><path d="M26.3.2c2.9 0 4.3 1.4 4.3 4.3v127.8c0 2.9-1.4 4.3-4.3 4.3h-21c-3 0-4.5-1.4-4.5-4.3V4.5C.8 1.6 2.3.2 5.3.2h21z" fill="url(#a)" transform="translate(385 82)"/><path d="M155.6 29.6c8.7 0 16 .7 22 2.2 6 1.5 10.7 3.8 14.3 7 3.6 3.2 6.1 7.3 7.7 12.3 1.6 5 2.3 11 2.3 18v28c0 7-.8 13-2.3 18-1.6 5-4.1 9.1-7.7 12.3-3.6 3.2-8.4 5.5-14.3 6.9-6 1.4-13.3 2.1-22 2.1h-55.1c-8.8 0-16.2-.7-22.1-2.1-5.9-1.4-10.7-3.7-14.2-6.9-3.6-3.2-6.1-7.3-7.7-12.3-1.5-5-2.3-11-2.3-18v-28c0-7 .8-13 2.3-18 1.6-5 4.1-9.1 7.7-12.3 3.6-3.2 8.3-5.5 14.2-7 5.9-1.5 13.3-2.2 22.1-2.2h55.1zM82 92.3c0 4.2.3 7.6 1 10.3.7 2.7 1.8 4.9 3.4 6.5 1.6 1.6 3.8 2.8 6.5 3.5 2.7.7 6.2 1.1 10.3 1.1h49.7c4.3 0 7.8-.3 10.5-1.1 2.7-.7 4.9-1.9 6.5-3.5 1.6-1.6 2.8-3.8 3.4-6.5.7-2.7 1-6.2 1-10.3V73.8c0-4-.3-7.4-1-10.1-.7-2.7-1.8-4.9-3.4-6.6-1.6-1.7-3.8-2.9-6.5-3.5-2.7-.6-6.2-1-10.5-1h-49.7c-4.2 0-7.6.3-10.3 1-2.7.7-4.9 1.8-6.5 3.5-1.6 1.7-2.8 3.9-3.4 6.6-.7 2.7-1 6.1-1 10.1v18.5z" fill="url(#b)" transform="translate(385 82)"/><path d="M373.8.2c3 0 4.5 1.4 4.5 4.3v19.1c0 3-1.5 4.5-4.5 4.5h-61.2v104.2c0 2.9-1.4 4.3-4.3 4.3h-21.2c-2.9 0-4.3-1.4-4.3-4.3V28h-61.2c-3 0-4.5-1.5-4.5-4.5V4.4c0-2.9 1.5-4.3 4.5-4.3h152.2v.1z" fill="url(#c)" transform="translate(385 82)"/><path d="M490.3 29.6c6.6 0 12.1.5 16.5 1.6s7.8 2.9 10.3 5.5c2.5 2.5 4.3 5.8 5.4 9.9 1 4.1 1.6 9.1 1.6 14.9V80c0 4.2-.9 7-2.7 8.7-1.8 1.6-4.6 2.4-8.4 2.4h-98.4v4.7c0 6.1 1.5 10.5 4.4 13.2 2.9 2.7 8.6 4.1 17 4.1h81.2c2.3 0 3.5 1.2 3.5 3.5V133c0 2.3-1.2 3.5-3.5 3.5h-84c-8.8 0-16.2-.7-22.1-2.1-5.9-1.4-10.6-3.7-14.2-6.9-3.6-3.2-6.1-7.3-7.7-12.3-1.6-5-2.3-11-2.3-18v-28c0-7 .8-13 2.3-18 1.6-5 4.1-9.1 7.7-12.3 3.6-3.2 8.3-5.5 14.2-7 5.9-1.5 13.3-2.2 22.1-2.2h57.1v-.1zm-75.8 44.2h78.9c2.2 0 3.3-1.1 3.3-3.3v-8.2c0-4-.8-6.9-2.5-8.6-1.7-1.7-4.8-2.5-9.3-2.5H436c-8.4 0-14.1 1.3-17 4-2.9 2.7-4.4 7.1-4.4 13.3v5.3h-.1z" fill="url(#d)" transform="translate(385 82)"/><path d="M697.1.2c1.8 0 2.8.6 3 1.9.2 1.2-.2 2.3-1.1 3.2l-59.8 60.6 62.5 65.6c.9.9 1.3 2 1.1 3.2-.2 1.2-1.2 1.9-3 1.9h-26.7c-1.6 0-2.8-.2-3.7-.6-.9-.4-1.8-1.1-2.5-2.1l-48.1-50.4-48.3 50.4c-.9 1-1.8 1.8-2.6 2.1-.8.4-2.1.6-3.8.6h-25.3c-1.7 0-2.6-.6-2.8-1.9-.2-1.2.2-2.3 1.1-3.2l64.1-66.6-57.8-59.6c-.8-.9-1.1-2-1-3.2.1-1.2 1.1-1.9 2.9-1.9H572c1.6 0 2.8.2 3.7.7.9.4 1.8 1.1 2.5 2l42.5 45.2 45-45.2c.8-.9 1.6-1.6 2.5-2 .9-.5 2.1-.7 3.7-.7h25.2z" fill="url(#e)" transform="translate(385 82)"/><path fill="url(#f)" d="M189.8.2v71.3l61.9-35.6z"/><path fill="url(#g)" opacity=".9" d="M251.7 35.9v71.3l61.9-35.7z"/><path fill="url(#h)" opacity=".8" d="M189.8 71.5v71.3l61.9-35.6z"/><path fill="url(#i)" opacity=".8" d="M251.7 107.2v71.3l61.9-35.7z"/><path fill="url(#j)" opacity=".8" d="M189.8 142.8v71.3l61.9-35.6z"/><path fill="url(#k)" d="M251.7 178.5v71.3l61.9-35.7z"/><path fill="url(#l)" opacity=".4" d="M29.8 69.1v71.3l61.9-35.7z"/><path fill="url(#m)" opacity=".2" d="M107.9 95.6v71.3l61.8-35.6z"/><path fill="url(#n)" opacity=".3" d="M62 140.7V212l61.9-35.7z"/><path fill="url(#o)" opacity=".9" d="M102.8 194.5v71.3l61.8-35.7z"/><path fill="url(#p)" opacity=".7" d="M189.3 225.2v71.3l61.8-35.7z"/><path fill="url(#q)" opacity=".9" d="M118.2 60.4v71.3L180 96.1z"/><path fill="url(#r)" opacity=".8" d="M189.8.2v71.3l-61.9-35.6z"/><path fill="url(#s)" opacity=".6" d="M118.2 30.5v71.3L56.3 66.1z"/><path fill="url(#t)" opacity=".6" d="M180.1 65.8v71.3l-61.9-35.7z"/><path fill="url(#u)" opacity=".95" d="M107.6 95.6v71.3l-61.9-35.6z"/><path fill="url(#v)" opacity=".6" d="M189.8 142.8v71.3L128 178.5z"/><path fill="url(#w)" opacity=".55" d="M62 159.4v71.3L.1 195z"/><path fill="url(#x)" d="M313.6 71.5v71.3l-61.9-35.6z"/><path fill="url(#y)" opacity=".95" d="M251.7 107.2v71.3l-61.9-35.7z"/><path fill="url(#z)" opacity=".9" d="M313.6 142.8v71.3l-61.9-35.6z"/><path fill="url(#A)" opacity=".7" d="M251.7 178.5v71.3l-61.9-35.7z"/><path fill="url(#B)" opacity=".4" d="M176.1 208.2v71.3l-61.9-35.6z"/><path fill="url(#C)" d="M251.7 35.9v71.3l-61.9-35.7z"/></g></svg>