<svg height="464pt" viewBox="0 0 464 464" width="464pt" xmlns="http://www.w3.org/2000/svg"><path d="M0 368h464v32H0zm0 0" fill="#d3843d"/><path d="M0 0h464v368H0zm0 0" fill="#238892"/><path d="M416 400H296V232h120zm0 0" fill="#fdbd40"/><path d="M416 464H296v-64h120zm0 0" fill="#394d5c"/><path d="M264 288h80v-32c0-8.836 7.164-16 16-16s16 7.164 16 16v64H264zm152-88H296V80h120zm0 0" fill="#f6bf9b"/><path d="M296 288h48v-32c0-8.836 7.164-16 16-16s16 7.164 16 16v64h-80zm120-160H296V80h120zm0 0" fill="#394d5c"/><path d="M162.598 205.898l10.812-11.793 96.004 88-10.812 11.793zm0 0" fill="#fdbd40"/><path d="M88 24h32v16H88zm-16 0H24v40h16V40h32zM24 80h16v32H24zm80 48h128v16H104zm-16 32h16v16H88zm32 0h16v16h-16zm32 0h16v16h-16zm0 0" fill="#fff"/></svg>